<?xml version="1.0" encoding="UTF-8" standalone="no"?>
<!DOCTYPE svg PUBLIC "-//W3C//DTD SVG 1.1//EN" "http://www.w3.org/Graphics/SVG/1.1/DTD/svg11.dtd">
<svg width="100%" height="100%" viewBox="0 0 119 26" version="1.1" xmlns="http://www.w3.org/2000/svg" xmlns:xlink="http://www.w3.org/1999/xlink" xml:space="preserve" xmlns:serif="http://www.serif.com/" style="fill-rule:evenodd;clip-rule:evenodd;stroke-linejoin:round;stroke-miterlimit:2;">
    <g transform="matrix(2.46772,0,0,2.46772,-90.2851,-41.164)">
        <g transform="matrix(12,0,0,12,36.5865,27.181)">
            <path d="M0.438,-0.438L0.438,-0.688L0.188,-0.688L0.188,-0.438L0.438,-0.438ZM0,-0L0,-0.875L0.625,-0.875L0.625,-0.25L0.438,-0.25L0.438,-0.188L0.625,-0.188L0.625,-0L0.25,-0L0.25,-0.25L0.188,-0.25L0.188,-0L0,-0Z" style="fill:rgb(211,19,0);fill-rule:nonzero;"/>
        </g>
        <g transform="matrix(12,0,0,12,44.8131,27.181)">
            <path d="M0,-0L0,-0.875L0.188,-0.875L0.188,-0.188L0.438,-0.188L0.438,-0.875L0.625,-0.875L0.625,-0L0,-0Z" style="fill:rgb(211,19,0);fill-rule:nonzero;"/>
        </g>
        <g transform="matrix(12,0,0,12,53.0396,27.181)">
            <path d="M0,-0L0,-0.188L0.438,-0.188L0.438,-0.375L0,-0.375L0,-0.875L0.625,-0.875L0.625,-0.688L0.188,-0.688L0.188,-0.563L0.625,-0.563L0.625,-0L0,-0Z" style="fill:rgb(211,19,0);fill-rule:nonzero;"/>
        </g>
        <g transform="matrix(12,0,0,12,61.2662,27.181)">
            <path d="M0.188,-0L0.188,-0.688L0,-0.688L0,-0.875L0.563,-0.875L0.563,-0.688L0.375,-0.688L0.375,-0L0.188,-0Z" style="fill:rgb(211,19,0);fill-rule:nonzero;"/>
        </g>
    </g>
    <g transform="matrix(1,0,0,1,-25.4858,7.58166)">
        <g transform="matrix(29.6126,0,0,29.6126,101.035,13.9337)">
            <path d="M0.361,-0L0.361,-0.253L0.108,-0.253L0.108,-0.325L0.361,-0.325L0.361,-0.578L0.434,-0.578L0.434,-0.325L0.687,-0.325L0.687,-0.253L0.434,-0.253L0.434,-0L0.361,-0Z" style="fill:rgb(211,19,0);fill-rule:nonzero;"/>
        </g>
    </g>
    <g transform="matrix(1,0,0,1,-30.1812,9.51199)">
        <g transform="matrix(14.8063,0,0,14.8063,126.06,16.399)">
            <rect x="0" y="-0.188" width="0.188" height="0.188" style="fill-rule:nonzero;"/>
        </g>
        <g transform="matrix(14.8063,0,0,14.8063,129.733,16.399)">
            <path d="M0,-0L0,-0.188L0.25,-0.188L0.375,-0.313L0.375,-0.688L0,-0.688L0,-0.875L0.563,-0.875L0.563,-0.188L0.375,-0L0,-0Z" style="fill-rule:nonzero;"/>
        </g>
        <g transform="matrix(14.8063,0,0,14.8063,138.958,16.399)">
            <path d="M0,-0L0,-0.188L0.438,-0.188L0.438,-0.375L0,-0.375L0,-0.875L0.625,-0.875L0.625,-0.688L0.188,-0.688L0.188,-0.563L0.625,-0.563L0.625,-0L0,-0Z" style="fill-rule:nonzero;"/>
        </g>
    </g>
</svg>
